<svg xmlns="http://www.w3.org/2000/svg" width="36" height="20" fill="none"><rect width="35" height="19" x=".5" y=".5" fill="#FFB1D2" rx="2.5"/><rect width="35" height="19" x=".5" y=".5" stroke="#E0E2E8" rx="2.5"/><g clip-path="url(#a)"><path fill="#000" d="M28.508 11.898a1.054 1.054 0 0 1-1.072-1.044c0-.572.47-1.043 1.072-1.043.603 0 1.072.47 1.072 1.043 0 .572-.47 1.044-1.072 1.044ZM28.207 13c.514 0 1.17-.185 1.533-.909l.035.017c-.16.396-.16.631-.16.69v.093h1.294V8.818h-1.293v.092c0 .06 0 .295.16.69l-.036.017c-.363-.724-1.02-.909-1.533-.909-1.232 0-2.1.926-2.1 2.146 0 1.22.868 2.146 2.1 2.146Zm-4.35-4.292c-.586 0-1.046.194-1.419.91l-.035-.018c.16-.395.16-.63.16-.69v-.092h-1.294v4.073h1.329v-2.146c0-.564.345-.917.904-.917.558 0 .833.302.833.908v2.155h1.329v-2.592c0-.926-.762-1.59-1.808-1.59Zm-4.511.91L19.31 9.6c.16-.395.16-.63.16-.69v-.092h-1.294v4.073h1.33l.008-1.961c0-.572.32-.917.842-.917.142 0 .257.017.39.05V8.818c-.585-.118-1.108.092-1.4.8Zm-4.227 2.28a1.054 1.054 0 0 1-1.072-1.044c0-.572.47-1.043 1.072-1.043.603 0 1.072.47 1.072 1.043 0 .572-.47 1.044-1.072 1.044ZM14.818 13c.514 0 1.17-.185 1.533-.909l.035.017c-.16.396-.16.631-.16.69v.093h1.294V8.818h-1.293v.092c0 .06 0 .295.16.69l-.036.017c-.363-.724-1.02-.909-1.533-.909-1.232 0-2.1.926-2.1 2.146 0 1.22.868 2.146 2.1 2.146Zm-3.952-.11h1.33V7h-1.33v5.89ZM9.89 7H8.536c0 1.052-.683 1.994-1.72 2.668l-.407.269V7H5v5.89h1.409V9.97l2.33 2.92h1.72l-2.242-2.793C9.236 9.398 9.9 8.313 9.89 7Z"/></g><defs><clipPath id="a"><path fill="#fff" d="M5 7h26v6H5z"/></clipPath></defs></svg>
